<?xml version="1.0" encoding="utf-8"?>
<!-- Generator: Adobe Illustrator 15.1.0, SVG Export Plug-In . SVG Version: 6.00 Build 0)  -->
<!DOCTYPE svg PUBLIC "-//W3C//DTD SVG 1.1//EN" "http://www.w3.org/Graphics/SVG/1.1/DTD/svg11.dtd">
<svg version="1.1" id="Layer_1" xmlns="http://www.w3.org/2000/svg" xmlns:xlink="http://www.w3.org/1999/xlink" x="0px" y="0px"
	 width="93.75px" height="30px" viewBox="0 0 93.75 30" enable-background="new 0 0 93.75 30" xml:space="preserve">
<g>
	<path fill="#FFFFFF" d="M0.66,0v31h31V0H0.66z M16.66,16.599l-12,6.902V18.56l5.246-3.12L4.66,12.126V7.433l12,7.067V16.599z
		 M27.66,26h-11v-3h11V26z"/>
	<g>
		<g>
			<path fill="#FFFFFF" d="M37.378,25.573V6.333h2.36v19.241H37.378z"/>
			<path fill="#FFFFFF" d="M39.813,25.648h-2.511V6.256h2.511V25.648z M37.454,25.497h2.208V6.408h-2.208V25.497z"/>
		</g>
		<g>
			<path fill="#FFFFFF" d="M49.007,25.573V8.214h-6.18V6.333h14.69v1.881h-6.152l-0.028,17.359H49.007z"/>
			<path fill="#FFFFFF" d="M51.413,25.648h-2.481V8.29h-6.18V6.256h14.841V8.29h-6.151L51.413,25.648z M49.082,25.497h2.181
				l0.028-17.359h6.151v-1.73H42.903v1.73h6.179V25.497z"/>
		</g>
		<g>
			<path fill="#FFFFFF" d="M74.763,18.663c0,4.297-2.36,7.135-7.36,7.135c-5.14,0-7.303-2.697-7.303-7.135V6.333h2.36v12.359
				c0,3.511,1.797,5.28,4.972,5.28c3.174,0,5-1.741,5-5.28L72.403,6.333h2.36V18.663z M64.82,4.984
				c-0.759,0-1.292-0.506-1.292-1.236c0-0.674,0.59-1.236,1.236-1.236c0.787,0,1.349,0.505,1.349,1.236
				C66.112,4.478,65.55,4.984,64.82,4.984z M69.988,4.984c-0.674,0-1.18-0.506-1.18-1.236c0-0.674,0.534-1.236,1.18-1.236
				c0.787,0,1.376,0.505,1.376,1.236C71.364,4.478,70.774,4.984,69.988,4.984z"/>
			<path fill="#FFFFFF" d="M67.403,25.873c-4.896,0-7.378-2.426-7.378-7.21V6.256h2.51v12.435c0,3.404,1.693,5.205,4.896,5.205
				c3.221,0,4.924-1.801,4.924-5.205L72.328,6.256h2.511v12.407C74.839,23.313,72.198,25.873,67.403,25.873z M60.176,6.408v12.255
				c0,4.684,2.432,7.059,7.227,7.059c4.698,0,7.284-2.507,7.284-7.059V6.408h-2.208l0.028,12.283c0,3.504-1.754,5.356-5.075,5.356
				c-3.302,0-5.048-1.853-5.048-5.355V6.408H60.176z M69.988,5.059c-0.728,0-1.255-0.552-1.255-1.311
				c0-0.724,0.563-1.311,1.255-1.311c0.841,0,1.452,0.551,1.452,1.311C71.44,4.507,70.829,5.059,69.988,5.059z M69.988,2.588
				c-0.599,0-1.104,0.531-1.104,1.16c0,0.672,0.465,1.16,1.104,1.16c0.754,0,1.301-0.488,1.301-1.16
				C71.289,3.076,70.742,2.588,69.988,2.588z M64.82,5.059c-0.805,0-1.368-0.539-1.368-1.311c0-0.699,0.613-1.311,1.311-1.311
				c0.838,0,1.424,0.539,1.424,1.311C66.188,4.507,65.612,5.059,64.82,5.059z M64.763,2.588c-0.618,0-1.16,0.542-1.16,1.16
				c0,0.683,0.5,1.16,1.216,1.16c0.704,0,1.216-0.488,1.216-1.16C66.036,3.065,65.513,2.588,64.763,2.588z"/>
		</g>
		<g>
			<path fill="#FFFFFF" d="M81.363,25.573h-2.36V6.333h2.36v8.735l8.398-8.735h2.696L85.015,14l7.724,11.573h-2.668l-6.601-9.973
				l-2.106,2.163V25.573z"/>
			<path fill="#FFFFFF" d="M92.88,25.648h-2.85l-6.572-9.928l-2.02,2.074v7.854h-2.511V6.256h2.511v8.624l8.291-8.624h2.907
				l-7.526,7.753L92.88,25.648z M90.11,25.497h2.487l-7.68-11.506l0.042-0.043l7.319-7.54h-2.486l-8.506,8.848V6.408h-2.208v19.089
				h2.208v-7.764l0.022-0.022l2.172-2.229l0.051,0.078L90.11,25.497z"/>
		</g>
	</g>
</g>
</svg>
